<svg width="8" height="10" viewBox="0 0 8 10" fill="none" xmlns="http://www.w3.org/2000/svg">
<path d="M4.039 0.108137C5.85022 0.0865096 7.47507 1.49075 7.88842 3.23022C8.3183 5.03766 7.47507 6.98259 5.89231 7.84924C5.67135 7.96973 5.47295 8.16747 5.31813 8.37293C5.00398 8.78849 4.73342 9.23649 4.43281 9.66286C4.10964 10.1232 3.86764 10.1109 3.54899 9.63351C3.42122 9.4435 3.29045 9.25503 3.1672 9.06192C2.79594 8.48262 2.35854 8.01145 1.77233 7.61134C-0.819005 5.84406 -0.507865 1.85997 2.30743 0.511336C2.83652 0.257985 3.43926 0.166841 4.00743 0C4.01795 0.0370757 4.02847 0.0726062 4.039 0.108137ZM7.197 4.26989C7.27666 2.66482 6.03961 1.2374 4.58312 0.987141C3.07401 0.727611 1.51981 1.58344 1.01477 3.01549C0.455619 4.59894 1.01928 6.29669 2.42467 7.06447C2.91618 7.33327 3.24236 7.70711 3.53696 8.1582C3.99691 8.86264 3.99541 8.85029 4.4764 8.16748C4.7199 7.82298 4.88373 7.41669 5.31061 7.21432C6.52211 6.63655 7.14288 5.6386 7.197 4.26989Z" fill="#8E8E93"/>
<path d="M4.00164 5.85015C3.11332 5.85015 2.39634 5.11327 2.40536 4.21264C2.41438 3.33209 3.13285 2.59212 3.98661 2.58285C4.8554 2.57358 5.59342 3.32128 5.60094 4.21573C5.60996 5.11481 4.88997 5.85015 4.00164 5.85015ZM4.78325 4.22345C4.78175 3.76618 4.44205 3.40779 4.00766 3.4047C3.57326 3.40315 3.22905 3.75846 3.22454 4.21418C3.22003 4.69925 3.55673 5.05148 4.01818 5.0453C4.45708 5.03912 4.78476 4.6869 4.78325 4.22345Z" fill="#8E8E93"/>
</svg>
